<?xml version="1.0" encoding="UTF-8" standalone="no"?>
<!-- Created with Inkscape (http://www.inkscape.org/) -->

<svg
   width="210mm"
   height="297mm"
   viewBox="0 0 210 297"
   version="1.1"
   id="svg1"
   inkscape:version="1.3 (1:1.3+202307231459+0e150ed6c4)"
   xmlns:inkscape="http://www.inkscape.org/namespaces/inkscape"
   xmlns:sodipodi="http://sodipodi.sourceforge.net/DTD/sodipodi-0.dtd"
   xmlns="http://www.w3.org/2000/svg"
   xmlns:svg="http://www.w3.org/2000/svg">
  <sodipodi:namedview
     id="namedview1"
     pagecolor="#ffffff"
     bordercolor="#666666"
     borderopacity="1.0"
     inkscape:showpageshadow="2"
     inkscape:pageopacity="0.0"
     inkscape:pagecheckerboard="0"
     inkscape:deskcolor="#d1d1d1"
     inkscape:document-units="mm"
     inkscape:zoom="0.67704826"
     inkscape:cx="396.57439"
     inkscape:cy="561.25984"
     inkscape:window-width="1920"
     inkscape:window-height="964"
     inkscape:window-x="0"
     inkscape:window-y="44"
     inkscape:window-maximized="1"
     inkscape:current-layer="layer1" />
  <defs
     id="defs1" />
  <g
     inkscape:label="Capa 1"
     inkscape:groupmode="layer"
     id="layer1">
    <path
       id="path838"
       style="fill:#ffcc00;fill-opacity:1;stroke-width:0.264583"
       d="m 118.65167,98.652406 c -14.76255,0.0131 -32.537733,3.618364 -49.051273,10.121344 -20.88201,8.22327 -35.77312,19.8991 -40.529827,31.77842 -1.44511,3.609 -1.86112,5.69846 -1.88102,9.44594 -0.0195,3.66409 0.2353,5.35181 1.3193,8.73125 2.80532,8.74574 9.822727,17.09167 20.387897,24.24865 l 1.91823,1.29966 v 2.34973 c 0,4.52347 -1.28061,8.81383 -3.75584,12.58424 -0.83016,1.26453 -3.0237,3.78478 -5.49372,6.31176 l -4.1119,4.20698 6.87917,-0.14728 c 7.56876,-0.16216 9.8711,-0.49507 14.34021,-2.07171 5.90077,-2.08171 11.59074,-6.03499 15.48485,-10.75903 l 0.93534,-1.13482 3.14089,0.9555 c 3.97718,1.21018 8.50076,2.29687 13.06225,3.13728 40.612743,7.48246 66.451083,-7.15965 70.484583,-39.94175 1.13266,-9.20566 0.6261,-22.33313 -1.20354,-31.20171 -3.58907,-17.39678 -14.17321,-27.02984 -32.23938,-29.341364 -3.03335,-0.38811 -6.27948,-0.57613 -9.68622,-0.57309 z"
       sodipodi:nodetypes="ssscsccsscccscccsssss" />
    <path
       id="path838-3"
       style="fill:#cd87de;fill-opacity:1;stroke-width:0.264583"
       d="m 94.373557,87.312536 c -14.76255,0.0131 -32.53773,3.61836 -49.05127,10.12134 C 24.44028,105.65715 9.54917,117.33298 4.79246,129.2123 c -1.44511,3.609 -1.86112,5.69846 -1.88102,9.44594 -0.0195,3.66409 0.2353,5.35181 1.3193,8.73125 2.80532,8.74574 9.82273,17.09167 20.3879,24.24865 l 1.91823,1.29966 v 2.34973 c 0,4.52347 -1.28061,8.81383 -3.75584,12.58424 -0.83016,1.26453 -3.0237,3.78478 -5.49372,6.31176 l -4.1119,4.20698 6.87917,-0.14728 c 7.56876,-0.16216 9.8711,-0.49507 14.340207,-2.07171 5.90077,-2.08171 11.59074,-6.03499 15.48485,-10.75903 l 0.93534,-1.13482 3.14089,0.9555 c 3.97718,1.21018 8.50076,2.29687 13.06225,3.13728 40.612753,7.48246 66.451083,-7.15965 70.484583,-39.94175 1.13266,-9.20566 0.6261,-22.33313 -1.20354,-31.20171 -3.58907,-17.396784 -14.1732,-27.029844 -32.23937,-29.341364 -3.03336,-0.38811 -6.279493,-0.57613 -9.686233,-0.57309 z"
       sodipodi:nodetypes="ssscsccsscccscccsssss" />
    <circle
       style="opacity:0.64;fill:#ffcc00;stroke-width:0.264583"
       id="path14067"
       cx="200.14766"
       cy="111.52065"
       r="6.7046266" />
    <circle
       style="opacity:0.64;fill:#cd87de;fill-opacity:1;stroke-width:0.264583"
       id="path14067-3"
       cx="175.93825"
       cy="125.26349"
       r="6.7046266" />
  </g>
</svg>
