<?xml version="1.0" encoding="UTF-8" standalone="no"?>
<!-- Created with Inkscape (http://www.inkscape.org/) -->

<svg
   width="311.78906mm"
   height="122.41788mm"
   viewBox="0 0 311.78906 122.41788"
   version="1.1"
   id="svg5"
   inkscape:version="1.1.2 (0a00cf5339, 2022-02-04)"
   sodipodi:docname="logo.svg"
   inkscape:export-filename="/home/joamuran/Dropbox/Docencia/Curs23-24/PMDM/WhatsDAM/logo.png"
   inkscape:export-xdpi="83.419998"
   inkscape:export-ydpi="83.419998"
   xmlns:inkscape="http://www.inkscape.org/namespaces/inkscape"
   xmlns:sodipodi="http://sodipodi.sourceforge.net/DTD/sodipodi-0.dtd"
   xmlns="http://www.w3.org/2000/svg"
   xmlns:svg="http://www.w3.org/2000/svg">
  <sodipodi:namedview
     id="namedview7"
     pagecolor="#ffffff"
     bordercolor="#666666"
     borderopacity="1.0"
     inkscape:pageshadow="2"
     inkscape:pageopacity="0.0"
     inkscape:pagecheckerboard="0"
     inkscape:document-units="mm"
     showgrid="false"
     fit-margin-top="0"
     fit-margin-left="0"
     fit-margin-right="0"
     fit-margin-bottom="0"
     inkscape:zoom="0.39685475"
     inkscape:cx="478.76458"
     inkscape:cy="655.15153"
     inkscape:window-width="1920"
     inkscape:window-height="964"
     inkscape:window-x="0"
     inkscape:window-y="44"
     inkscape:window-maximized="1"
     inkscape:current-layer="layer1" />
  <defs
     id="defs2" />
  <g
     inkscape:label="Capa 1"
     inkscape:groupmode="layer"
     id="layer1"
     transform="translate(129.07865,-23.629164)">
    <path
       id="path838"
       style="fill:#ffcc00;fill-opacity:1;stroke-width:0.264583"
       d="m -13.337403,34.96907 c -14.76255,0.0131 -32.53773,3.61836 -49.05127,10.12134 -20.88201,8.223273 -35.77312,19.899103 -40.529827,31.778423 -1.44511,3.609 -1.86112,5.69846 -1.88102,9.44594 -0.0195,3.66409 0.2353,5.35181 1.3193,8.73125 2.80532,8.745737 9.822727,17.091667 20.387897,24.248647 l 1.91823,1.29966 v 2.34973 c 0,4.52347 -1.28061,8.81383 -3.75584,12.58424 -0.83016,1.26453 -3.0237,3.78478 -5.49372,6.31176 l -4.1119,4.20698 6.87917,-0.14728 c 7.56876,-0.16216 9.8711,-0.49507 14.34021,-2.07171 5.90077,-2.08171 11.59074,-6.03499 15.48485,-10.75903 l 0.93534,-1.13482 3.14089,0.9555 c 3.97718,1.21018 8.50076,2.29687 13.06225,3.13728 40.61274709,7.48246 66.451087,-7.15965 70.484587,-39.941747 1.13266,-9.20566 0.6261,-22.33313 -1.20354,-31.20171 -3.58907,-17.39678 -14.17321,-27.029843 -32.2393799,-29.341363 -3.033357,-0.38811 -6.279487,-0.57613 -9.6862271,-0.57309 z"
       sodipodi:nodetypes="ssscsccsscccscccsssss" />
    <path
       id="path838-3"
       style="fill:#cd87de;fill-opacity:1;stroke-width:0.264583"
       d="m -37.615513,23.6292 c -14.76255,0.0131 -32.53773,3.61836 -49.05127,10.12134 -20.882007,8.22327 -35.773117,19.899103 -40.529827,31.778423 -1.44511,3.609 -1.86112,5.69846 -1.88102,9.44594 -0.0195,3.66409 0.2353,5.35181 1.3193,8.73125 2.80532,8.74574 9.82273,17.091667 20.3879,24.248647 l 1.91823,1.29966 v 2.34973 c 0,4.52347 -1.28061,8.81383 -3.75584,12.58424 -0.83016,1.26453 -3.0237,3.78478 -5.49372,6.31176 l -4.1119,4.20698 6.87917,-0.14728 c 7.56876,-0.16216 9.8711,-0.49507 14.340207,-2.07171 5.90077,-2.08171 11.59074,-6.03499 15.48485,-10.75903 l 0.93534,-1.13482 3.14089,0.9555 c 3.97718,1.21018 8.50076,2.29687 13.06225,3.13728 40.61275,7.48246 66.4510871,-7.15965 70.4845871,-39.941747 1.13266,-9.20566 0.6261,-22.33313 -1.20354,-31.20171 C 0.72102409,36.14687 -9.8631129,26.51381 -27.929283,24.20229 c -3.03336,-0.38811 -6.27949,-0.57613 -9.68623,-0.57309 z"
       sodipodi:nodetypes="ssscsccsscccscccsssss" />
    <text
       xml:space="preserve"
       style="font-size:60.2997px;line-height:1.25;font-family:sans-serif;stroke-width:0.706635"
       x="-103.04945"
       y="104.6668"
       id="text4013"><tspan
         sodipodi:role="line"
         id="tspan4011"
         style="font-style:normal;font-variant:normal;font-weight:bold;font-stretch:normal;font-family:'Universalis ADF Std';-inkscape-font-specification:'Universalis ADF Std Bold';fill:#2d1650;stroke-width:0.706635"
         x="-103.04945"
         y="104.6668">Whats<tspan
   style="fill:#ffcc00"
   id="tspan13963">DAM</tspan></tspan></text>
    <circle
       style="opacity:0.64;fill:#ffcc00;stroke-width:0.264583"
       id="path14067"
       cx="68.158585"
       cy="47.837318"
       r="6.7046266" />
    <circle
       style="opacity:0.64;fill:#cd87de;fill-opacity:1;stroke-width:0.264583"
       id="path14067-3"
       cx="43.949177"
       cy="61.580154"
       r="6.7046266" />
  </g>
</svg>
